# xmcd
#
# Track frame offsets:
#	150
#	28121
#	62145
#	85708
#	102726
#	153816
#	180525
#	207327
#	240381
#	260718
#
# Disc length: 3708 seconds
#
# Revision: 1
# Processed by: cddbd v1.5.2PL0 Copyright (c) Steve Scherf et al.
# Submitted via: audiograbber 1.83.01
#
DISCID=820e7a0a
DTITLE=Aun - Blackwhitehorse
DYEAR=2009
DGENRE=Electronic
TTITLE0=Hue Hue Tenango
TTITLE1=Inkblot
TTITLE2=Unta Eyeless
TTITLE3=Cyan Card Rejector
TTITLE4=Post Post
TTITLE5=Coyba Burns
TTITLE6=Mayburry First Class
TTITLE7=Orga
TTITLE8=Chell
TTITLE9=Dltag
EXTD=
EXTT0=
EXTT1=
EXTT2=
EXTT3=
EXTT4=
EXTT5=
EXTT6=
EXTT7=
EXTT8=
EXTT9=
PLAYORDER=
